<svg width="1496" height="998" viewBox="0 0 1496 998" fill="none" xmlns="http://www.w3.org/2000/svg">
  <defs>
    <radialGradient id="bg" cx="0" cy="0" r="1" gradientUnits="userSpaceOnUse" gradientTransform="translate(748 430) rotate(90) scale(540 760)">
      <stop offset="0" stop-color="#FFFFFF"/>
      <stop offset="0.55" stop-color="#E7EEFF"/>
      <stop offset="1" stop-color="#F4F5FA"/>
    </radialGradient>
    <radialGradient id="mist" cx="0" cy="0" r="1" gradientUnits="userSpaceOnUse" gradientTransform="translate(748 760) rotate(90) scale(300 900)">
      <stop offset="0" stop-color="#D8E8FF" stop-opacity="0.5"/>
      <stop offset="1" stop-color="#D8E8FF" stop-opacity="0"/>
    </radialGradient>
    <filter id="blur" x="-20%" y="-20%" width="140%" height="140%">
      <feGaussianBlur stdDeviation="3"/>
    </filter>
  </defs>

  <rect width="1496" height="998" fill="#F3F4F8"/>
  <ellipse cx="748" cy="430" rx="760" ry="520" fill="url(#bg)"/>
  <ellipse cx="748" cy="760" rx="820" ry="260" fill="url(#mist)"/>
  <path d="M128 630C410 718 1085 760 1368 576" stroke="#F8FAFF" stroke-width="3" stroke-linecap="round" opacity="0.8"/>
  <g filter="url(#blur)" opacity="0.65" fill="#FDFEFF">
    <circle cx="250" cy="645" r="2"/>
    <circle cx="312" cy="612" r="3"/>
    <circle cx="389" cy="640" r="2"/>
    <circle cx="520" cy="617" r="2"/>
    <circle cx="680" cy="572" r="2"/>
    <circle cx="930" cy="500" r="2"/>
    <circle cx="980" cy="472" r="3"/>
    <circle cx="1048" cy="530" r="2"/>
    <circle cx="1135" cy="548" r="3"/>
    <circle cx="1242" cy="590" r="2"/>
    <circle cx="1178" cy="655" r="2"/>
    <circle cx="1060" cy="690" r="2"/>
    <circle cx="960" cy="640" r="2"/>
    <circle cx="860" cy="612" r="2"/>
    <circle cx="768" cy="648" r="2"/>
    <circle cx="660" cy="702" r="2"/>
    <circle cx="542" cy="748" r="2"/>
    <circle cx="430" cy="720" r="2"/>
  </g>
</svg>
